<?xml version="1.0" encoding="UTF-8" standalone="no"?>
<svg width="1606px" height="198px" viewBox="0 0 1606 198" version="1.1" xmlns="http://www.w3.org/2000/svg" xmlns:xlink="http://www.w3.org/1999/xlink">
    <!-- Generator: Sketch 43.2 (39069) - http://www.bohemiancoding.com/sketch -->
    <title>brand-logo</title>
    <desc>Created with Sketch.</desc>
    <defs></defs>
    <g id="Page-1" stroke="none" stroke-width="1" fill="none" fill-rule="evenodd">
        <g id="brand-logo">
            <path d="M319.7522,105.2247 L319.7522,99.9007 C319.7502,69.7477 319.8662,39.5947 319.6242,9.4437 C319.5862,4.6847 321.0682,3.7327 325.4652,3.8057 C340.7872,4.0607 356.1172,4.0007 371.4412,3.8357 C374.8922,3.7987 376.3262,4.2777 376.3162,8.3307 C376.1682,68.6357 376.1772,128.9417 376.3092,189.2467 C376.3172,193.1017 375.1672,193.9527 371.5242,193.9087 C355.7002,193.7187 339.8712,193.7137 324.0482,193.9137 C320.5552,193.9577 318.7152,192.6627 316.9062,189.8437 C296.6032,158.2067 276.1802,126.6477 255.7442,95.0967 C254.7092,93.4997 254.0782,91.5087 252.1082,90.4667 C250.9362,92.2217 251.5402,94.0897 251.5372,95.8217 C251.4952,126.8077 251.4592,157.7937 251.5942,188.7787 C251.6102,192.5127 250.8612,193.9847 246.7162,193.9107 C232.2272,193.6517 217.7302,193.7317 203.2392,193.8887 C199.9362,193.9247 198.6242,193.2477 198.6302,189.5637 C198.7422,129.0927 198.7322,68.6207 198.6422,8.1497 C198.6372,4.9947 199.2842,3.7907 202.7012,3.8287 C217.8592,3.9987 233.0222,4.0407 248.1782,3.7947 C251.5972,3.7397 252.7612,5.6597 254.2282,7.8887 C274.8962,39.2897 295.5852,70.6767 316.2792,102.0607 C316.9882,103.1367 317.4072,104.5017 319.7522,105.2247" id="Fill-4" fill="#FE9D01"></path>
            <path d="M1331.1277,105.121 C1332.4587,103.428 1331.8397,101.719 1331.8417,100.162 C1331.8857,69.836 1331.9867,39.508 1331.7537,9.183 C1331.7187,4.62 1333.0587,3.728 1337.3137,3.799 C1352.8057,4.058 1368.3057,3.985 1383.8007,3.837 C1387.0527,3.806 1388.4257,4.345 1388.4187,8.085 C1388.3007,68.572 1388.3157,129.059 1388.3957,189.546 C1388.3997,192.552 1387.6437,193.572 1384.5107,193.544 C1368.0157,193.397 1351.5177,193.378 1335.0227,193.546 C1331.9857,193.577 1330.6297,192.174 1329.1857,189.931 C1308.1997,157.341 1287.1487,124.793 1266.1097,92.237 C1265.7527,91.685 1265.3497,91.162 1264.7457,90.311 C1263.5137,92.124 1264.0137,93.949 1264.0117,95.609 C1263.9767,126.602 1263.9177,157.596 1264.0807,188.588 C1264.1017,192.485 1263.1227,193.628 1259.1557,193.563 C1244.6627,193.323 1230.1597,193.3 1215.6687,193.586 C1211.4797,193.668 1210.8307,192.175 1210.8367,188.471 C1210.9377,128.485 1210.9437,68.497 1210.8237,8.511 C1210.8157,4.76 1211.7977,3.755 1215.5347,3.812 C1230.1947,4.034 1244.8617,4.027 1259.5227,3.816 C1262.8317,3.769 1264.5557,4.979 1266.2767,7.604 C1286.7097,38.772 1307.2477,69.871 1327.7947,100.964 C1328.7387,102.393 1329.3367,104.21 1331.1277,105.121" id="Fill-6" fill="#FE9D01"></path>
            <path d="M1467.51,76.0135 C1477.002,65.3405 1485.508,55.8035 1493.985,46.2385 C1505.693,33.0265 1517.38,19.7955 1529.071,6.5675 C1530.409,5.0535 1531.708,3.8405 1534.061,3.8485 C1557.868,3.9345 1581.675,3.9005 1605.623,3.9005 C1605.474,6.2555 1603.626,7.0795 1602.439,8.2725 C1581.405,29.4175 1560.377,50.5675 1539.179,71.5465 C1536.528,74.1705 1536.474,75.8985 1538.332,78.9815 C1560.398,115.5925 1582.314,152.2935 1604.257,188.9785 C1606.908,193.4115 1606.871,193.4615 1601.514,193.4655 C1581.52,193.4775 1561.524,193.3605 1541.532,193.5635 C1537.686,193.6025 1535.683,192.5525 1533.943,188.9735 C1522.82,166.0915 1511.404,143.3525 1500.098,120.5595 C1497.485,115.2915 1497.545,115.3125 1493.462,119.7585 C1486.477,127.3635 1479.619,135.0995 1472.351,142.4245 C1468.803,146.0005 1467.236,149.6495 1467.398,154.7495 C1467.763,166.2345 1467.415,177.7405 1467.57,189.2345 C1467.612,192.3785 1466.831,193.5785 1463.45,193.5445 C1447.289,193.3835 1431.126,193.4055 1414.965,193.5275 C1412.04,193.5495 1410.944,192.9245 1410.949,189.7125 C1411.044,129.0635 1411.04,68.4135 1410.953,7.7645 C1410.948,4.7095 1411.748,3.8025 1414.849,3.8315 C1431.01,3.9825 1447.174,4.0185 1463.334,3.8165 C1467.073,3.7705 1467.605,5.1975 1467.583,8.4525 C1467.45,28.7795 1467.512,49.1075 1467.51,69.4345 L1467.51,76.0135" id="Fill-8" fill="#FE9D01"></path>
            <path d="M620.0306,96.4837 C619.6966,92.2067 619.5376,87.0337 618.8176,81.9417 C618.2396,77.8507 617.2566,73.7667 615.9796,69.8337 C610.8236,53.9437 597.8376,44.9967 580.2386,44.9697 C563.8056,44.9447 551.1036,54.0137 546.1186,69.7707 C540.8336,86.4777 540.8026,103.5457 544.0516,120.5767 C548.5026,143.9037 562.3476,154.6197 586.0146,152.9917 C599.1966,152.0847 608.8466,145.3917 614.1686,133.0787 C619.0966,121.6777 619.2816,109.4757 620.0306,96.4837 M485.5196,99.8877 C485.6436,82.8397 487.5456,67.0797 493.8806,52.1047 C503.9126,28.3877 521.3416,12.6247 545.8916,5.4277 C569.3996,-1.4643 593.3606,-1.3823 616.8076,5.6007 C649.3526,15.2937 667.7266,38.3257 673.9266,71.0337 C678.3816,94.5387 677.8726,118.2317 669.9456,141.0167 C659.1246,172.1217 636.5586,189.7807 604.2706,195.1807 C584.9736,198.4077 565.7236,197.6697 546.8896,192.5077 C515.4756,183.8997 497.5016,162.1427 489.1566,131.5387 C486.2496,120.8787 485.6956,109.8957 485.5196,99.8877" id="Fill-10" fill="#FE9D01"></path>
            <path d="M176.1102,98.7235 C176.1102,128.7205 176.0272,158.7185 176.2062,188.7155 C176.2312,192.8775 175.1052,193.9375 170.9632,193.9175 C135.9662,193.7475 100.9662,193.5395 65.9732,193.9325 C45.2812,194.1655 29.5892,185.3105 16.7932,169.8625 C6.4592,157.3865 2.9872,142.4335 1.0582,126.9395 C-0.6768,113.0025 0.3652,98.9835 0.2762,85.0035 C0.1132,59.5065 0.3122,34.0075 0.1362,8.5115 C0.1102,4.7625 1.0552,3.7595 4.8162,3.8125 C20.6452,4.0315 36.4812,4.0545 52.3092,3.8015 C56.3842,3.7365 57.2092,5.0265 57.1952,8.8435 C57.0572,45.8395 57.1342,82.8365 57.0802,119.8335 C57.0742,124.0335 57.4242,128.1515 58.6022,132.1645 C62.1702,144.3155 71.7422,152.0915 85.0922,152.7755 C95.5642,153.3115 106.0842,152.8485 116.5792,153.0485 C120.3872,153.1205 119.8692,150.7225 119.8762,148.4095 C119.9412,126.0795 120.0322,103.7495 120.0622,81.4195 C120.0942,57.2545 120.1872,33.0885 119.9602,8.9265 C119.9192,4.6265 121.2002,3.7505 125.2492,3.8145 C140.5772,4.0585 155.9132,4.0405 171.2422,3.8165 C175.1262,3.7595 176.2292,4.7555 176.2062,8.7315 C176.0302,38.7285 176.1102,68.7265 176.1102,98.7235" id="Fill-12" fill="#FE9D01"></path>
            <path d="M1094.2948,54.0712 C1093.8948,54.0662 1093.4948,54.0612 1093.0948,54.0552 C1091.2698,60.1712 1089.4308,66.2832 1087.6218,72.4042 C1083.2498,87.1992 1078.8428,101.9842 1074.6038,116.8172 C1074.2048,118.2152 1072.0148,121.1422 1075.8288,121.1992 C1088.4208,121.3852 1101.0178,121.2692 1114.0868,121.2692 C1107.3708,98.4682 1100.8328,76.2702 1094.2948,54.0712 M1094.1678,3.9012 C1103.5008,3.9022 1112.8348,4.0022 1122.1648,3.8382 C1124.7748,3.7922 1125.8728,4.6812 1126.7488,7.1002 C1148.8308,68.0212 1170.9828,128.9152 1193.1978,189.7872 C1194.2168,192.5782 1194.0408,193.5432 1190.7558,193.5222 C1173.4248,193.4072 1156.0908,193.3972 1138.7598,193.5442 C1135.7688,193.5692 1134.7628,192.3162 1134.0508,189.7282 C1131.8468,181.7152 1129.3508,173.7822 1127.1428,165.7692 C1126.4218,163.1522 1125.3208,162.0402 1122.3738,162.0622 C1103.2088,162.2082 1084.0428,162.2142 1064.8778,162.0572 C1061.8848,162.0322 1060.8658,163.2192 1060.1488,165.7962 C1057.9238,173.7992 1055.3648,181.7112 1053.2348,189.7382 C1052.4338,192.7572 1050.9578,193.5572 1047.9908,193.5322 C1032.1598,193.4022 1016.3268,193.4792 1000.4938,193.4722 C994.2238,193.4692 994.1808,193.4392 996.2538,187.7212 C1009.7318,150.5432 1023.2418,113.3762 1036.7188,76.1972 C1044.8738,53.7012 1053.0868,31.2252 1061.0288,8.6542 C1062.3728,4.8332 1064.2048,3.6452 1068.1728,3.7972 C1076.8268,4.1292 1085.5018,3.9002 1094.1678,3.9012" id="Fill-14" fill="#FE9D01"></path>
            <path d="M813.1802,191.9936 C790.9652,158.2966 768.7502,124.5986 746.3692,90.6506 C744.4222,92.5106 745.1882,94.4276 745.1852,96.0666 C745.1282,127.0446 745.0692,158.0236 745.2332,189.0016 C745.2532,192.9066 744.2622,193.9916 740.3192,193.9236 C725.6662,193.6716 711.0062,193.7016 696.3522,193.8876 C692.7742,193.9336 691.9912,192.7606 691.9962,189.3646 C692.0962,129.0726 692.1072,68.7806 691.9822,8.4886 C691.9742,4.7196 692.9672,3.7576 696.6822,3.8126 C711.3362,4.0306 725.9952,3.9986 740.6502,3.8236 C743.8642,3.7856 745.7142,4.7696 747.4932,7.4886 C768.6172,39.7756 789.8792,71.9736 811.1222,104.1836 C812.0262,105.5546 813.0982,106.8156 814.0912,108.1286 C814.0992,134.5396 814.1212,160.9506 814.0812,187.3626 C814.0792,188.9146 814.8192,190.7176 813.1802,191.9936" id="Fill-16" fill="#FE9D01"></path>
            <path d="M879.0743,4.0712 C898.2273,4.0732 917.3973,3.5532 936.5273,4.2142 C958.3683,4.9682 975.7763,18.2112 981.0223,37.3862 C986.5633,57.6402 980.2893,81.2502 956.3263,90.9132 C955.5983,91.2062 954.6373,91.1842 954.2753,92.6432 C957.2303,93.7392 960.2673,94.7792 963.2383,95.9812 C981.3793,103.3192 990.4503,116.9562 991.2983,136.3542 C992.1353,155.4762 985.7173,171.2312 970.0573,182.7912 C963.1253,187.9082 954.9623,189.6202 946.7543,190.9492 C924.2773,194.5892 901.6213,193.5592 878.9973,193.2032 C879.0483,179.8552 879.1003,166.5082 879.1513,153.1602 C889.4703,153.1412 899.7893,153.1102 910.1083,153.1072 C914.9773,153.1062 919.6973,152.3082 924.1783,150.3982 C931.7013,147.1922 934.4903,140.8202 934.8983,133.2682 C935.2833,126.1492 930.8573,119.6662 924.1603,116.8172 C919.6763,114.9102 914.9283,114.1832 910.0773,114.1622 C899.7583,114.1192 889.4393,114.1122 879.1203,114.0902 C879.1253,102.1062 879.1303,90.1212 879.1343,78.1372 C888.4493,78.1092 897.7743,78.3412 907.0753,77.9732 C915.1453,77.6542 922.7933,75.7952 925.9943,66.9942 C930.7103,54.0302 923.5583,42.9722 909.6663,42.1702 C899.5503,41.5872 889.3903,41.7602 879.2503,41.5952 L879.0743,4.0712 Z" id="Fill-18" fill="#FE9D01"></path>
            <path d="M879.0743,4.0712 C879.1333,16.5792 879.1913,29.0872 879.2513,41.5962 C877.9553,42.7362 878.1733,44.2832 878.1713,45.7482 C878.1583,55.3252 878.1563,64.9022 878.1773,74.4792 C878.1793,75.7632 877.8843,77.1632 879.1343,78.1372 C879.1303,90.1212 879.1253,102.1062 879.1203,114.0902 C878.2523,114.7942 878.1823,115.7772 878.1823,116.7822 C878.1833,128.0162 878.1853,139.2512 878.1893,150.4852 C878.1903,151.4882 878.2533,152.4762 879.1513,153.1602 C879.1003,166.5082 879.0483,179.8552 878.9973,193.2032 C858.7143,193.1912 838.4303,193.2032 818.1473,193.1212 C816.4803,193.1142 814.4343,194.0832 813.1803,191.9932 C814.8193,190.7182 814.0793,188.9152 814.0813,187.3622 C814.1213,160.9512 814.0993,134.5392 814.0913,108.1282 C815.7633,106.4522 814.9613,104.3382 814.9643,102.4432 C815.0203,71.3632 815.0853,40.2832 814.9093,9.2042 C814.8863,4.9832 816.1613,3.9382 820.2413,3.9792 C839.8503,4.1812 859.4633,4.0712 879.0743,4.0712" id="Fill-20" fill="#FECF84"></path>
            <path d="M406.1094,98.5927 C406.1094,68.5987 406.1684,38.6037 406.0314,8.6097 C406.0144,5.0287 406.7154,3.7427 410.6244,3.8017 C426.6184,4.0407 442.6184,3.9857 458.6134,3.8347 C461.8914,3.8037 463.2034,4.3777 463.1964,8.0937 C463.0764,68.5827 463.0794,129.0707 463.1904,189.5597 C463.1964,193.2287 461.9744,193.9057 458.6004,193.8717 C442.7714,193.7077 426.9374,193.6547 411.1124,193.9437 C406.7554,194.0227 406.0004,192.5437 406.0214,188.5757 C406.1824,158.5817 406.1094,128.5867 406.1094,98.5927" id="Fill-22" fill="#FE9D01"></path>
        </g>
    </g>
</svg>